<?xml version="1.0" encoding="UTF-8"?>
<svg xmlns="http://www.w3.org/2000/svg" xmlns:xlink="http://www.w3.org/1999/xlink" width="192px" height="192px" viewBox="0 0 192 192" version="1.1">
<g id="surface1">
<path style=" stroke:none;fill-rule:evenodd;fill:rgb(0%,0%,0%);fill-opacity:1;" d="M 18.75 77.351562 C 14.304688 78.296875 11.625 80.300781 9.679688 84.140625 C 4.859375 93.652344 6.910156 108.949219 13.597656 113.375 C 15.414062 114.574219 16.160156 114.75 19.464844 114.738281 C 23.871094 114.726562 26.371094 113.667969 28.957031 110.722656 C 31.234375 108.128906 31.574219 106.960938 31.867188 100.742188 C 32.34375 90.691406 30.671875 83.570312 27.097656 80.433594 C 24.558594 78.203125 20.976562 76.882812 18.75 77.351562 M 145.570312 78.011719 C 139.992188 79.992188 137.582031 83.296875 136.460938 90.5 C 135.75 95.042969 136.171875 102.867188 137.3125 106.402344 C 139.074219 111.855469 142.984375 114.6875 148.75 114.691406 C 152.738281 114.691406 154.523438 113.957031 157.183594 111.214844 C 159.242188 109.097656 160.421875 105.222656 159.523438 103.542969 C 158.34375 101.335938 154.441406 102.695312 152.144531 106.113281 C 151.359375 107.285156 150.3125 108.320312 149.820312 108.414062 C 146.878906 108.980469 143.917969 105.335938 142.957031 99.957031 C 141.890625 93.980469 143.714844 87.351562 147.125 84.824219 C 148.996094 83.433594 150.710938 84.097656 152.746094 87 C 154.480469 89.476562 157.070312 90.75 158.652344 89.914062 C 159.941406 89.230469 160.140625 88.378906 159.535156 86.128906 C 158.671875 82.925781 156.265625 80.0625 153.339844 78.761719 C 149.511719 77.058594 148.519531 76.964844 145.570312 78.011719 M 108 96.515625 L 108 114.636719 L 111.34375 114.367188 C 115.648438 114.023438 116 113.550781 116 108.15625 C 116 103.054688 116.441406 102.492188 121.171875 101.554688 C 125.292969 100.734375 128.765625 98.546875 130.386719 95.75 C 131.394531 94.011719 131.523438 93.222656 131.367188 89.703125 C 131.21875 86.378906 130.9375 85.234375 129.792969 83.277344 C 127.589844 79.519531 125.546875 78.832031 115.875 78.589844 L 108 78.394531 L 108 96.515625 M 163.46875 79.53125 C 162.664062 80.335938 162.511719 80.917969 162.773438 82.15625 C 163.3125 84.671875 163.835938 85 167.304688 85 L 170.484375 85 L 170.75 114.25 L 174.625 114.394531 L 178.5 114.542969 L 178.5 85 L 181.21875 85 C 182.710938 85 184.511719 84.78125 185.21875 84.511719 C 186.332031 84.089844 186.5 83.730469 186.5 81.78125 C 186.5 80.074219 186.269531 79.410156 185.53125 79.015625 C 184.957031 78.710938 180.492188 78.5 174.53125 78.5 C 165.0625 78.5 164.441406 78.558594 163.46875 79.53125 M 17.570312 84.308594 C 15.65625 85.648438 14.824219 89.113281 14.785156 95.929688 C 14.734375 104.679688 15.152344 106.800781 17.160156 108.027344 C 20.265625 109.921875 23.359375 108.703125 24.546875 105.117188 C 25.917969 100.96875 24.921875 87.75 23.066406 85.457031 C 21.933594 84.058594 18.84375 83.414062 17.570312 84.308594 M 117 83.988281 C 116.039062 84.59375 115.621094 92.859375 116.46875 94.445312 C 117.625 96.605469 122.558594 95.488281 123.476562 92.855469 C 124.769531 89.144531 123.582031 85.402344 120.734375 84.210938 C 118.75 83.382812 118.027344 83.339844 117 83.988281 M 47.363281 87.546875 C 46.851562 87.84375 44.242188 87.996094 41.238281 87.90625 L 35.996094 87.75 L 36 106.375 L 36 125 L 38.28125 125 C 42.136719 125 42.5 124.570312 42.5 120.015625 C 42.5 117.84375 42.722656 115.484375 42.992188 114.773438 C 43.476562 113.496094 43.507812 113.492188 45.300781 114.238281 C 49.210938 115.871094 52.453125 114.6875 54.980469 110.703125 C 57.449219 106.808594 58.144531 101.210938 56.789062 96.117188 C 55.070312 89.664062 50.640625 85.636719 47.363281 87.546875 M 94.25 87.691406 C 93.425781 88.050781 92.441406 88.71875 92.0625 89.171875 C 91.214844 90.195312 90.5 90.238281 90.5 89.273438 C 90.5 88.492188 87.652344 87.507812 85.375 87.503906 L 84 87.5 L 84 98.9375 C 84 112.125 84.15625 113.394531 85.855469 114.039062 C 87.546875 114.683594 89.492188 114.082031 89.992188 112.765625 C 90.226562 112.15625 90.636719 108.082031 90.910156 103.703125 C 91.449219 95.015625 91.628906 94.183594 93.046875 93.734375 C 95.988281 92.800781 96.714844 94.867188 97.242188 105.710938 C 97.414062 109.265625 97.761719 112.558594 98.015625 113.027344 C 98.511719 113.957031 100.558594 114.523438 102.027344 114.136719 C 103.71875 113.695312 104.148438 110.898438 103.894531 102.035156 C 103.601562 91.851562 102.871094 89.574219 99.398438 87.996094 C 96.878906 86.855469 96.257812 86.816406 94.25 87.691406 M 68.34375 88.066406 C 67.019531 88.265625 65.390625 88.785156 64.726562 89.21875 C 62.40625 90.742188 60.828125 95.226562 60.214844 102.042969 C 59.792969 106.777344 60.5 108.488281 64.335938 111.992188 C 69.1875 116.425781 72.503906 116.425781 77.101562 111.996094 C 79.117188 110.054688 79.546875 109.34375 79.414062 108.179688 C 79.1875 106.203125 77.621094 106.085938 73.882812 107.761719 C 70.355469 109.347656 68.25 109.074219 67.015625 106.871094 C 66.328125 105.652344 66.339844 105.445312 67.121094 104.664062 C 67.8125 103.972656 69.171875 103.761719 74.046875 103.589844 L 80.113281 103.371094 L 79.902344 98.8125 C 79.667969 93.679688 78.707031 91.070312 76.472656 89.480469 C 74.65625 88.1875 71.367188 87.613281 68.34375 88.066406 M 43.65625 94.324219 C 42.964844 95.378906 42.804688 96.636719 42.871094 100.484375 C 42.96875 106.152344 43.484375 107.828125 45.347656 108.535156 C 47.75 109.449219 48.878906 108.773438 49.730469 105.902344 C 50.613281 102.933594 50.742188 97.699219 49.980469 95.699219 C 48.859375 92.746094 45.207031 91.953125 43.65625 94.324219 M 67.5 94 C 66.949219 94.550781 66.5 95.335938 66.5 95.75 C 66.5 98.015625 70.199219 99.253906 72.386719 97.722656 C 73.695312 96.808594 73.800781 95.652344 72.722656 94.113281 C 71.703125 92.660156 68.902344 92.597656 67.5 94 "/>
</g>
</svg>
